# xmcd
#
# Track frame offsets:
#	150
#	14865
#	25472
#	43715
#	56255
#	70875
#	83290
#	96822
#	113755
#	129922
#	140212
#	152622
#	166485
#	183060
#	198057
#	208267
#	225657
#	240855
#	258580
#	271250
#	284905
#	299712
#
# Disc length: 4182 seconds
# Revision: 2
# Processed by: cddbd v1.5.2PL0 Copyright (c) Steve Scherf et al.
# Submitted via: dBpowerAMP V12.0
#
DISCID=3f105416
DTITLE=Various Artist - Mirrors Of Life, Vol. 4
DYEAR=2000
DGENRE=Country
TTITLE0=Clay Walker - Let Me Take That Heartache (Off Your Hands)
TTITLE1=Ricochet - You Can't Go By That
TTITLE2=Doug Stone - The Feeling Never Goes Away
TTITLE3=Mark Chesnutt - Hello Honky Tonk
TTITLE4=Daryle Singletary - That's What I Get For Thinking
TTITLE5=Charlie Floyd - Good Girls Go To Heaven
TTITLE6=Lonestar - Keys To My Heart
TTITLE7=Clay Walker - Money Ain't Everything
TTITLE8=Ty Herndon - Your Heart Is Only Human
TTITLE9=Rhett Akins - Every Cowboy's Dream
TTITLE10=Jo-El Sonnier - Hello Happiness Again
TTITLE11=B. B. Watson - Eye For An Eye
TTITLE12=Doug Stone - This Empty House
TTITLE13=Clay Walker - Heartache Highway
TTITLE14=Rebecca Lynn Howard - Tennessee In My Windshield
TTITLE15=Deryl Dodd - Best I Ever Had
TTITLE16=Susan Ashton - Closer
TTITLE17=Garth Brooks - Tearin' It Up (And Burnin' It Down)
TTITLE18=Clay Walker - How To Make A Man Lonesome
TTITLE19=Kenny Chesney - Whatever It Takes
TTITLE20=Lee Greenwood - Somebody's Gotta Take The Fall
TTITLE21=Janie Fricke - Finishing Touch
EXTD=
EXTT0=
EXTT1=
EXTT2=
EXTT3=
EXTT4=
EXTT5=
EXTT6=
EXTT7=
EXTT8=
EXTT9=
EXTT10=
EXTT11=
EXTT12=
EXTT13=
EXTT14=
EXTT15=
EXTT16=
EXTT17=
EXTT18=
EXTT19=
EXTT20=
EXTT21=
PLAYORDER=
